PathFileType  4	(X/Y/Z) C:\Users\wagnerel85475\Documents\Thesis\opencap-core\Data\3375ffbc-daeb-4a43-b4f7-ac9899cd4c71\MarkerData\PreAugmentation
DataRate	CameraRate	NumFrames	NumMarkers	Units	OrigDataRate	OrigDataStartFrame	OrigNumFrames
60.0	60.0	9	20	m	60.0	265	423
Frame#	Time	Neck			RShoulder			RElbow			RWrist			LShoulder			LElbow			LWrist			midHip			RHip			RKnee			RAnkle			LHip			LKnee			LAnkle			LBigToe			LSmallToe			LHeel			RBigToe			RSmallToe			RHeel			
		X1	Y1	Z1	X2	Y2	Z2	X3	Y3	Z3	X4	Y4	Z4	X5	Y5	Z5	X6	Y6	Z6	X7	Y7	Z7	X8	Y8	Z8	X9	Y9	Z9	X10	Y10	Z10	X11	Y11	Z11	X12	Y12	Z12	X13	Y13	Z13	X14	Y14	Z14	X15	Y15	Z15	X16	Y16	Z16	X17	Y17	Z17	X18	Y18	Z18	X19	Y19	Z19	X20	Y20	Z20	

265	4.4000000	1.2876400	0.8336900	0.0073300	1.3032200	0.8369900	0.1813700	1.3879900	0.5876800	0.3575200	1.5943100	0.3855200	0.4621500	1.3016200	0.8342700	-0.1844800	1.3834500	0.5899400	-0.3295600	1.6087800	0.3854500	-0.4124100	0.8897900	0.4372300	-0.0293700	0.9087100	0.4362900	0.0933700	1.3034300	0.2661900	0.1793000	1.0343800	-0.1728800	0.1555800	0.8804800	0.4406100	-0.1538800	1.2468100	0.2529600	-0.2635400	1.0288300	-0.1820400	-0.2249000	1.2117400	-0.2239700	-0.3270100	1.1480100	-0.2230300	-0.3529400	0.9735600	-0.2365900	-0.1966100	1.1570300	-0.2399600	0.2755900	1.1161500	-0.2245900	0.2937700	0.9869900	-0.2240900	0.1194800
266	4.4166667	1.2876300	0.8247600	0.0075900	1.3057400	0.8271000	0.1805600	1.4024300	0.5789900	0.3625200	1.6131100	0.3869700	0.4634300	1.2955200	0.8253400	-0.1796400	1.3964000	0.5850300	-0.3213400	1.6143800	0.3781800	-0.4099200	0.8905200	0.4331300	-0.0290700	0.9097200	0.4359000	0.0934100	1.3011800	0.2710300	0.1800900	1.0266800	-0.1789500	0.1607900	0.8728800	0.4353200	-0.1493700	1.2320900	0.2516500	-0.2638300	1.0284900	-0.1823300	-0.2251300	1.2180500	-0.2207300	-0.3230300	1.1542100	-0.2205800	-0.3486600	0.9734300	-0.2371600	-0.1968000	1.1595600	-0.2421200	0.2743700	1.1229300	-0.2220200	0.2894400	0.9872300	-0.2282000	0.1187300
267	4.4333333	1.2939700	0.8092000	0.0032900	1.3055400	0.8093100	0.1802800	1.4025300	0.5649600	0.3634500	1.6229900	0.3832500	0.4551800	1.2957200	0.8203600	-0.1805500	1.4085900	0.5756200	-0.3138500	1.6311800	0.3828900	-0.4052300	0.8898000	0.4302400	-0.0294100	0.9087700	0.4290300	0.0930500	1.3026000	0.2764100	0.1797300	1.0274400	-0.1755900	0.1598100	0.8733800	0.4360600	-0.1496900	1.2328800	0.2520100	-0.2628900	1.0285000	-0.1787800	-0.2242700	1.2187900	-0.2183900	-0.3241900	1.1551600	-0.2238000	-0.3500200	0.9733000	-0.2365700	-0.1967200	1.1579400	-0.2416700	0.2741900	1.1314000	-0.2194000	0.2905900	0.9869600	-0.2278200	0.1189400
268	4.4500000	1.2885700	0.7987600	0.0069300	1.3111100	0.8038700	0.1765900	1.4074700	0.5667100	0.3593200	1.6432100	0.3919300	0.4456200	1.2956200	0.8111700	-0.1799500	1.4092000	0.5722300	-0.3130400	1.6522000	0.3791800	-0.3915300	0.8903700	0.4300200	-0.0287600	0.9089100	0.4258500	0.0936100	1.3014600	0.2768500	0.1790400	1.0266400	-0.1762900	0.1601100	0.8722700	0.4316000	-0.1496900	1.2318400	0.2516300	-0.2568800	1.0284000	-0.1821900	-0.2252000	1.2181100	-0.2207400	-0.3229600	1.1544400	-0.2239700	-0.3492600	0.9732300	-0.2371300	-0.1969500	1.1590800	-0.2441500	0.2750100	1.1232500	-0.2259300	0.2887100	0.9872400	-0.2279900	0.1186500
269	4.4666667	1.2950100	0.7949900	0.0026100	1.3097600	0.7978800	0.1769100	1.4079700	0.5657800	0.3591500	1.6481500	0.3922900	0.4414600	1.3021100	0.8020400	-0.1844800	1.4211600	0.5689400	-0.3130600	1.6638600	0.3733500	-0.3898000	0.8896200	0.4299900	-0.0295100	0.9157400	0.4274100	0.0892900	1.3021800	0.2762800	0.1797600	1.0191200	-0.1786300	0.1571600	0.8722800	0.4322800	-0.1500400	1.2333600	0.2552900	-0.2562300	1.0283000	-0.1753900	-0.2236500	1.2186600	-0.2180200	-0.3228300	1.1550600	-0.2202900	-0.3493400	0.9731700	-0.2335500	-0.1961900	1.1575000	-0.2440300	0.2747800	1.1226900	-0.2222600	0.2895400	0.9868400	-0.2237200	0.1194400
270	4.4833333	1.2946200	0.7921200	0.0029200	1.3094900	0.7923700	0.1769600	1.4137500	0.5720400	0.3543200	1.6523300	0.4024300	0.4377400	1.3019100	0.7936200	-0.1836000	1.4220000	0.5655900	-0.3129700	1.6632400	0.3730400	-0.3840200	0.8907100	0.4298400	-0.0288100	0.9169400	0.4274100	0.0895100	1.2948100	0.2691000	0.1839800	1.0265700	-0.1763100	0.1601600	0.8720600	0.4315400	-0.1497500	1.2380100	0.2628800	-0.2526400	1.0281000	-0.1789200	-0.2245100	1.2179300	-0.2146900	-0.3229300	1.1542500	-0.2176300	-0.3491700	0.9731400	-0.2341500	-0.1963300	1.1597300	-0.2420200	0.2743200	1.1313000	-0.2189800	0.2918100	0.9873400	-0.2237600	0.1192500
271	4.5000000	1.2942200	0.7892200	0.0030700	1.3096900	0.7921500	0.1768800	1.4243300	0.5709800	0.3467400	1.6528700	0.4038100	0.4368500	1.2957300	0.7886600	-0.1811000	1.4216900	0.5658300	-0.3131500	1.6633200	0.3738500	-0.3825400	0.8894600	0.4262500	-0.0297300	0.9159400	0.4243900	0.0897700	1.2825000	0.2686400	0.1865300	1.0343800	-0.1702200	0.1550200	0.8720700	0.4322400	-0.1499500	1.2391300	0.2634900	-0.2517200	1.0282300	-0.1754700	-0.2236800	1.2186000	-0.2151600	-0.3233700	1.1550100	-0.2174900	-0.3498300	0.9653400	-0.2365700	-0.1996400	1.1644900	-0.2393100	0.2699500	1.1293900	-0.2195100	0.2852700	0.9870100	-0.2234400	0.1194400
272	4.5166667	1.2941700	0.7892400	0.0031100	1.3093100	0.7924900	0.1769300	1.4398300	0.5755000	0.3345000	1.6657300	0.4106600	0.4253500	1.3021500	0.7843900	-0.1835200	1.4280600	0.5579800	-0.3099200	1.6728200	0.3743900	-0.3818800	0.8906000	0.4261300	-0.0292700	0.9167900	0.4273800	0.0894200	1.2817000	0.2716500	0.1853300	1.0337400	-0.1707700	0.1552800	0.8802200	0.4334000	-0.1537600	1.2379500	0.2658400	-0.2450800	1.0207200	-0.1816700	-0.2278300	1.2245800	-0.2120800	-0.3194900	1.1609500	-0.2151100	-0.3457000	0.9652500	-0.2371300	-0.1998000	1.1658400	-0.2396000	0.2701800	1.1236200	-0.2197600	0.2886800	0.9873300	-0.2237800	0.1192300
273	4.5333333	1.2940500	0.7893000	0.0029100	1.3094800	0.7924000	0.1767200	1.4405400	0.5770700	0.3341100	1.6730600	0.4196200	0.4114200	1.3020600	0.7867300	-0.1843900	1.4278700	0.5555700	-0.3104700	1.6740100	0.3796900	-0.3759700	0.8898300	0.4264600	-0.0298400	0.9162800	0.4274600	0.0893400	1.2887400	0.2756000	0.1816400	1.0343700	-0.1701500	0.1549900	0.8804600	0.4341900	-0.1539200	1.2389200	0.2693200	-0.2436500	1.0282100	-0.1754800	-0.2236200	1.2186400	-0.2151300	-0.3233600	1.1550800	-0.2201800	-0.3491300	0.9653700	-0.2366100	-0.1995800	1.1645500	-0.2393200	0.2698800	1.1295000	-0.2194300	0.2852400	0.9871200	-0.2237600	0.1194400
